<svg width="250" height="250" viewBox="0 0 250 250" fill="none" xmlns="http://www.w3.org/2000/svg">
<rect width="250" height="250" fill="#3A4F41"/>
<path d="M52.957 132.854V135H42.416V132.854H52.957ZM42.9492 115.094V135H40.3105V115.094H42.9492ZM51.5625 123.652V125.799H42.416V123.652H51.5625ZM52.8203 115.094V117.254H42.416V115.094H52.8203ZM68.2422 128.67H70.8672C70.7305 129.928 70.3704 131.053 69.7871 132.047C69.2038 133.04 68.3789 133.829 67.3125 134.412C66.2461 134.986 64.9154 135.273 63.3203 135.273C62.1536 135.273 61.0918 135.055 60.1348 134.617C59.1868 134.18 58.3711 133.56 57.6875 132.758C57.0039 131.947 56.4753 130.976 56.1016 129.846C55.737 128.706 55.5547 127.439 55.5547 126.045V124.062C55.5547 122.668 55.737 121.406 56.1016 120.275C56.4753 119.136 57.0085 118.161 57.7012 117.35C58.403 116.538 59.2461 115.914 60.2305 115.477C61.2148 115.039 62.3223 114.82 63.5527 114.82C65.0566 114.82 66.3281 115.103 67.3672 115.668C68.4062 116.233 69.2129 117.017 69.7871 118.02C70.3704 119.013 70.7305 120.166 70.8672 121.479H68.2422C68.1146 120.549 67.8776 119.751 67.5312 119.086C67.1849 118.411 66.6927 117.892 66.0547 117.527C65.4167 117.163 64.5827 116.98 63.5527 116.98C62.6686 116.98 61.8893 117.149 61.2148 117.486C60.5495 117.824 59.9889 118.302 59.5332 118.922C59.0866 119.542 58.7493 120.285 58.5215 121.15C58.2936 122.016 58.1797 122.978 58.1797 124.035V126.045C58.1797 127.02 58.2799 127.936 58.4805 128.793C58.6901 129.65 59.0046 130.402 59.4238 131.049C59.8431 131.696 60.3763 132.206 61.0234 132.58C61.6706 132.945 62.4362 133.127 63.3203 133.127C64.4414 133.127 65.3346 132.949 66 132.594C66.6654 132.238 67.1667 131.728 67.5039 131.062C67.8503 130.397 68.0964 129.6 68.2422 128.67ZM89.7891 124.418V125.676C89.7891 127.171 89.6022 128.51 89.2285 129.695C88.8548 130.88 88.3171 131.887 87.6152 132.717C86.9134 133.546 86.0703 134.18 85.0859 134.617C84.1107 135.055 83.0169 135.273 81.8047 135.273C80.6289 135.273 79.5488 135.055 78.5645 134.617C77.5892 134.18 76.7415 133.546 76.0215 132.717C75.3105 131.887 74.7591 130.88 74.3672 129.695C73.9753 128.51 73.7793 127.171 73.7793 125.676V124.418C73.7793 122.923 73.9707 121.588 74.3535 120.412C74.7454 119.227 75.2969 118.22 76.0078 117.391C76.7188 116.552 77.5618 115.914 78.5371 115.477C79.5215 115.039 80.6016 114.82 81.7773 114.82C82.9896 114.82 84.0833 115.039 85.0586 115.477C86.043 115.914 86.8861 116.552 87.5879 117.391C88.2988 118.22 88.8411 119.227 89.2148 120.412C89.5977 121.588 89.7891 122.923 89.7891 124.418ZM87.1777 125.676V124.391C87.1777 123.206 87.0547 122.158 86.8086 121.246C86.5716 120.335 86.2207 119.569 85.7559 118.949C85.291 118.329 84.7214 117.86 84.0469 117.541C83.3815 117.222 82.625 117.062 81.7773 117.062C80.957 117.062 80.2142 117.222 79.5488 117.541C78.8926 117.86 78.3275 118.329 77.8535 118.949C77.3887 119.569 77.0286 120.335 76.7734 121.246C76.5182 122.158 76.3906 123.206 76.3906 124.391V125.676C76.3906 126.87 76.5182 127.927 76.7734 128.848C77.0286 129.759 77.3932 130.529 77.8672 131.158C78.3503 131.778 78.9199 132.247 79.5762 132.566C80.2415 132.885 80.9844 133.045 81.8047 133.045C82.6615 133.045 83.4225 132.885 84.0879 132.566C84.7533 132.247 85.3138 131.778 85.7695 131.158C86.2344 130.529 86.5853 129.759 86.8223 128.848C87.0592 127.927 87.1777 126.87 87.1777 125.676ZM93.7402 115.094H100.33C101.825 115.094 103.087 115.322 104.117 115.777C105.156 116.233 105.945 116.908 106.482 117.801C107.029 118.685 107.303 119.774 107.303 121.068C107.303 121.98 107.116 122.814 106.742 123.57C106.378 124.318 105.849 124.956 105.156 125.484C104.473 126.004 103.652 126.391 102.695 126.646L101.957 126.934H95.7637L95.7363 124.787H100.412C101.36 124.787 102.148 124.623 102.777 124.295C103.406 123.958 103.88 123.507 104.199 122.941C104.518 122.376 104.678 121.752 104.678 121.068C104.678 120.303 104.527 119.633 104.227 119.059C103.926 118.484 103.452 118.042 102.805 117.732C102.167 117.413 101.342 117.254 100.33 117.254H96.3789V135H93.7402V115.094ZM105.375 135L100.535 125.977L103.283 125.963L108.191 134.836V135H105.375ZM113.824 115.094V135H111.186V115.094H113.824ZM124.01 135H119.854L119.881 132.854H124.01C125.432 132.854 126.617 132.557 127.564 131.965C128.512 131.363 129.223 130.525 129.697 129.449C130.18 128.365 130.422 127.098 130.422 125.648V124.432C130.422 123.292 130.285 122.281 130.012 121.396C129.738 120.503 129.337 119.751 128.809 119.141C128.28 118.521 127.633 118.051 126.867 117.732C126.111 117.413 125.24 117.254 124.256 117.254H119.771V115.094H124.256C125.559 115.094 126.749 115.312 127.824 115.75C128.9 116.178 129.825 116.803 130.6 117.623C131.383 118.434 131.985 119.419 132.404 120.576C132.824 121.725 133.033 123.019 133.033 124.459V125.648C133.033 127.089 132.824 128.387 132.404 129.545C131.985 130.693 131.379 131.673 130.586 132.484C129.802 133.296 128.854 133.92 127.742 134.357C126.639 134.786 125.395 135 124.01 135ZM121.262 115.094V135H118.623V115.094H121.262ZM149.645 132.854V135H139.104V132.854H149.645ZM139.637 115.094V135H136.998V115.094H139.637ZM148.25 123.652V125.799H139.104V123.652H148.25ZM149.508 115.094V117.254H139.104V115.094H149.508ZM171.246 115.094H173.871V128.561C173.871 130.055 173.538 131.299 172.873 132.293C172.208 133.286 171.324 134.034 170.221 134.535C169.127 135.027 167.938 135.273 166.652 135.273C165.303 135.273 164.082 135.027 162.988 134.535C161.904 134.034 161.042 133.286 160.404 132.293C159.775 131.299 159.461 130.055 159.461 128.561V115.094H162.072V128.561C162.072 129.6 162.264 130.456 162.646 131.131C163.029 131.805 163.562 132.307 164.246 132.635C164.939 132.963 165.741 133.127 166.652 133.127C167.573 133.127 168.375 132.963 169.059 132.635C169.751 132.307 170.289 131.805 170.672 131.131C171.055 130.456 171.246 129.6 171.246 128.561V115.094ZM185.355 127.193H180.037V125.047H185.355C186.385 125.047 187.219 124.883 187.857 124.555C188.495 124.227 188.96 123.771 189.252 123.188C189.553 122.604 189.703 121.939 189.703 121.191C189.703 120.508 189.553 119.865 189.252 119.264C188.96 118.662 188.495 118.179 187.857 117.814C187.219 117.441 186.385 117.254 185.355 117.254H180.652V135H178.014V115.094H185.355C186.859 115.094 188.131 115.354 189.17 115.873C190.209 116.393 190.997 117.113 191.535 118.033C192.073 118.945 192.342 119.988 192.342 121.164C192.342 122.44 192.073 123.529 191.535 124.432C190.997 125.334 190.209 126.022 189.17 126.496C188.131 126.961 186.859 127.193 185.355 127.193ZM202.104 131.979L207.969 115.094H210.826L203.457 135H201.42L202.104 131.979ZM196.621 115.094L202.432 131.979L203.156 135H201.119L193.764 115.094H196.621Z" fill="white"/>
</svg>
