<svg width="116" height="25" viewBox="0 0 116 25" fill="none" xmlns="http://www.w3.org/2000/svg">
<path d="M15.3594 24.125H0V1.71875H15.3594V6.20312H4.48438V10.6875H11.8438V15.1719H4.48438V19.6406H15.3594V24.125Z" fill="#3A4F41"/>
<path d="M32.2031 10.7188L29.0781 13.8594C28.9219 13.4219 28.7083 13.0312 28.4375 12.6875C28.1667 12.3333 27.8594 12.0365 27.5156 11.7969C27.1823 11.5573 26.8177 11.375 26.4219 11.25C26.026 11.125 25.6198 11.0625 25.2031 11.0625C24.6198 11.0625 24.0677 11.1823 23.5469 11.4219C23.0365 11.6615 22.5885 12 22.2031 12.4375C21.8281 12.8646 21.5312 13.375 21.3125 13.9688C21.0938 14.5625 20.9844 15.2188 20.9844 15.9375C20.9844 16.5208 21.0938 17.0677 21.3125 17.5781C21.5312 18.0885 21.8281 18.5365 22.2031 18.9219C22.5885 19.3073 23.0365 19.6094 23.5469 19.8281C24.0677 20.0469 24.6198 20.1562 25.2031 20.1562C25.6198 20.1562 26.0208 20.099 26.4062 19.9844C26.7917 19.8698 27.151 19.7083 27.4844 19.5C27.8281 19.2812 28.1302 19.0208 28.3906 18.7188C28.6615 18.4062 28.8802 18.0625 29.0469 17.6875L32.1719 20.8281C31.776 21.3906 31.3177 21.8958 30.7969 22.3438C30.2865 22.7917 29.7292 23.1719 29.125 23.4844C28.5312 23.7969 27.901 24.0312 27.2344 24.1875C26.5781 24.3542 25.901 24.4375 25.2031 24.4375C24.026 24.4375 22.9167 24.2188 21.875 23.7812C20.8438 23.3333 19.9375 22.724 19.1562 21.9531C18.3854 21.1823 17.776 20.2812 17.3281 19.25C16.8802 18.2188 16.6562 17.1146 16.6562 15.9375C16.6562 14.6562 16.8802 13.4583 17.3281 12.3438C17.776 11.2292 18.3854 10.2604 19.1562 9.4375C19.9375 8.60417 20.8438 7.94792 21.875 7.46875C22.9167 6.98958 24.026 6.75 25.2031 6.75C25.901 6.75 26.5833 6.83854 27.25 7.01562C27.9271 7.19271 28.5677 7.45312 29.1719 7.79688C29.7865 8.13021 30.349 8.54167 30.8594 9.03125C31.3802 9.52083 31.8281 10.0833 32.2031 10.7188Z" fill="#3A4F41"/>
<path d="M50.2188 15.6094C50.2188 16.8594 49.9948 18.026 49.5469 19.1094C49.099 20.1823 48.4896 21.1146 47.7188 21.9062C46.9479 22.6875 46.0417 23.3073 45 23.7656C43.9688 24.2135 42.8594 24.4375 41.6719 24.4375C40.4948 24.4375 39.3854 24.2135 38.3438 23.7656C37.3125 23.3073 36.4062 22.6875 35.625 21.9062C34.8542 21.1146 34.2448 20.1823 33.7969 19.1094C33.349 18.026 33.125 16.8594 33.125 15.6094C33.125 14.3385 33.349 13.1615 33.7969 12.0781C34.2448 10.9948 34.8542 10.0625 35.625 9.28125C36.4062 8.48958 37.3125 7.86979 38.3438 7.42188C39.3854 6.97396 40.4948 6.75 41.6719 6.75C42.8594 6.75 43.9688 6.96354 45 7.39062C46.0417 7.80729 46.9479 8.40625 47.7188 9.1875C48.4896 9.95833 49.099 10.8906 49.5469 11.9844C49.9948 13.0677 50.2188 14.276 50.2188 15.6094ZM45.9219 15.6094C45.9219 14.9219 45.8073 14.3021 45.5781 13.75C45.3594 13.1875 45.0573 12.7083 44.6719 12.3125C44.2865 11.9062 43.8333 11.599 43.3125 11.3906C42.8021 11.1719 42.2552 11.0625 41.6719 11.0625C41.0885 11.0625 40.5365 11.1719 40.0156 11.3906C39.5052 11.599 39.0573 11.9062 38.6719 12.3125C38.2969 12.7083 38 13.1875 37.7812 13.75C37.5625 14.3021 37.4531 14.9219 37.4531 15.6094C37.4531 16.2552 37.5625 16.8542 37.7812 17.4062C38 17.9583 38.2969 18.4375 38.6719 18.8438C39.0573 19.25 39.5052 19.5729 40.0156 19.8125C40.5365 20.0417 41.0885 20.1562 41.6719 20.1562C42.2552 20.1562 42.8021 20.0469 43.3125 19.8281C43.8333 19.6094 44.2865 19.3021 44.6719 18.9062C45.0573 18.5104 45.3594 18.0312 45.5781 17.4688C45.8073 16.9062 45.9219 16.2865 45.9219 15.6094Z" fill="#3A4F41"/>
<path d="M57.5156 6.20312V15.1719H62C62.6146 15.1719 63.1927 15.0573 63.7344 14.8281C64.276 14.5885 64.75 14.2656 65.1562 13.8594C65.5625 13.4531 65.8802 12.9792 66.1094 12.4375C66.349 11.8854 66.4688 11.3021 66.4688 10.6875C66.4688 10.0729 66.349 9.49479 66.1094 8.95312C65.8802 8.40104 65.5625 7.92188 65.1562 7.51562C64.75 7.10938 64.276 6.79167 63.7344 6.5625C63.1927 6.32292 62.6146 6.20312 62 6.20312H57.5156ZM57.5156 24.125H53.0312V1.71875H62C62.8229 1.71875 63.6146 1.82812 64.375 2.04688C65.1354 2.25521 65.8438 2.55729 66.5 2.95312C67.1667 3.33854 67.7708 3.80729 68.3125 4.35938C68.8646 4.90104 69.3333 5.50521 69.7188 6.17188C70.1146 6.83854 70.4167 7.55208 70.625 8.3125C70.8438 9.07292 70.9531 9.86458 70.9531 10.6875C70.9531 11.4583 70.8542 12.2083 70.6562 12.9375C70.4688 13.6667 70.1927 14.3594 69.8281 15.0156C69.474 15.6719 69.0365 16.276 68.5156 16.8281C67.9948 17.3802 67.4115 17.8594 66.7656 18.2656L69.25 24.125H64.4844L62.5312 19.6094L57.5156 19.6406V24.125Z" fill="#3A4F41"/>
<path d="M78.4844 2.84375C78.4844 3.23958 78.4062 3.60938 78.25 3.95312C78.1042 4.29688 77.901 4.59896 77.6406 4.85938C77.3802 5.10938 77.0729 5.3125 76.7188 5.46875C76.375 5.61458 76.0052 5.6875 75.6094 5.6875C75.2135 5.6875 74.8385 5.61458 74.4844 5.46875C74.1406 5.3125 73.8385 5.10938 73.5781 4.85938C73.3281 4.59896 73.125 4.29688 72.9688 3.95312C72.8229 3.60938 72.75 3.23958 72.75 2.84375C72.75 2.45833 72.8229 2.09375 72.9688 1.75C73.125 1.39583 73.3281 1.09375 73.5781 0.84375C73.8385 0.583333 74.1406 0.380208 74.4844 0.234375C74.8385 0.078125 75.2135 0 75.6094 0C76.0052 0 76.375 0.078125 76.7188 0.234375C77.0729 0.380208 77.3802 0.583333 77.6406 0.84375C77.901 1.09375 78.1042 1.39583 78.25 1.75C78.4062 2.09375 78.4844 2.45833 78.4844 2.84375ZM77.75 24.125H73.4531V7.39062H77.75V24.125Z" fill="#3A4F41"/>
<path d="M97.1875 24.125H96.1562L94.5 21.8281C94.0938 22.1927 93.6615 22.5365 93.2031 22.8594C92.7552 23.1719 92.2812 23.4479 91.7812 23.6875C91.2812 23.9167 90.7656 24.099 90.2344 24.2344C89.7135 24.3698 89.1823 24.4375 88.6406 24.4375C87.4635 24.4375 86.3542 24.2188 85.3125 23.7812C84.2812 23.3333 83.375 22.7188 82.5938 21.9375C81.8229 21.1458 81.2135 20.2135 80.7656 19.1406C80.3177 18.0573 80.0938 16.8802 80.0938 15.6094C80.0938 14.349 80.3177 13.1771 80.7656 12.0938C81.2135 11.0104 81.8229 10.0729 82.5938 9.28125C83.375 8.48958 84.2812 7.86979 85.3125 7.42188C86.3542 6.97396 87.4635 6.75 88.6406 6.75C89.0156 6.75 89.401 6.78125 89.7969 6.84375C90.2031 6.90625 90.5938 7.01042 90.9688 7.15625C91.3542 7.29167 91.7135 7.47396 92.0469 7.70312C92.3802 7.93229 92.6615 8.21354 92.8906 8.54688V0.734375H97.1875V24.125ZM92.8906 15.6094C92.8906 15.026 92.776 14.4635 92.5469 13.9219C92.3281 13.3698 92.026 12.8854 91.6406 12.4688C91.2552 12.0417 90.8021 11.7031 90.2812 11.4531C89.7708 11.1927 89.224 11.0625 88.6406 11.0625C88.0573 11.0625 87.5052 11.1667 86.9844 11.375C86.474 11.5833 86.026 11.8854 85.6406 12.2812C85.2656 12.6667 84.9688 13.1406 84.75 13.7031C84.5312 14.2656 84.4219 14.901 84.4219 15.6094C84.4219 16.224 84.5312 16.8073 84.75 17.3594C84.9688 17.9115 85.2656 18.3958 85.6406 18.8125C86.026 19.2292 86.474 19.5573 86.9844 19.7969C87.5052 20.0365 88.0573 20.1562 88.6406 20.1562C89.224 20.1562 89.7708 20.0312 90.2812 19.7812C90.8021 19.5208 91.2552 19.1823 91.6406 18.7656C92.026 18.3385 92.3281 17.8542 92.5469 17.3125C92.776 16.7604 92.8906 16.1927 92.8906 15.6094Z" fill="#3A4F41"/>
<path d="M107.109 20.0312C107.276 20.0833 107.443 20.1198 107.609 20.1406C107.776 20.151 107.943 20.1562 108.109 20.1562C108.526 20.1562 108.927 20.099 109.312 19.9844C109.698 19.8698 110.057 19.7083 110.391 19.5C110.734 19.2812 111.036 19.0208 111.297 18.7188C111.568 18.4062 111.786 18.0625 111.953 17.6875L115.078 20.8281C114.682 21.3906 114.224 21.8958 113.703 22.3438C113.193 22.7917 112.635 23.1719 112.031 23.4844C111.438 23.7969 110.807 24.0312 110.141 24.1875C109.484 24.3542 108.807 24.4375 108.109 24.4375C106.932 24.4375 105.823 24.2188 104.781 23.7812C103.75 23.3438 102.844 22.7344 102.062 21.9531C101.292 21.1719 100.682 20.2448 100.234 19.1719C99.7865 18.0885 99.5625 16.901 99.5625 15.6094C99.5625 14.2865 99.7865 13.0781 100.234 11.9844C100.682 10.8906 101.292 9.95833 102.062 9.1875C102.844 8.41667 103.75 7.81771 104.781 7.39062C105.823 6.96354 106.932 6.75 108.109 6.75C108.807 6.75 109.49 6.83333 110.156 7C110.823 7.16667 111.453 7.40625 112.047 7.71875C112.651 8.03125 113.214 8.41667 113.734 8.875C114.255 9.32292 114.714 9.82812 115.109 10.3906L107.109 20.0312ZM109.297 11.2344C109.099 11.1615 108.901 11.1146 108.703 11.0938C108.516 11.0729 108.318 11.0625 108.109 11.0625C107.526 11.0625 106.974 11.1719 106.453 11.3906C105.943 11.599 105.495 11.901 105.109 12.2969C104.734 12.6927 104.438 13.1719 104.219 13.7344C104 14.2865 103.891 14.9115 103.891 15.6094C103.891 15.7656 103.896 15.9427 103.906 16.1406C103.927 16.3385 103.953 16.5417 103.984 16.75C104.026 16.9479 104.073 17.1406 104.125 17.3281C104.177 17.5156 104.245 17.6823 104.328 17.8281L109.297 11.2344Z" fill="#3A4F41"/>
</svg>
